<?xml version="1.0" standalone="no"?>
<!DOCTYPE svg PUBLIC "-//W3C//DTD SVG 20010904//EN"
 "http://www.w3.org/TR/2001/REC-SVG-20010904/DTD/svg10.dtd">
<svg version="1.0" xmlns="http://www.w3.org/2000/svg"
 width="144.000000pt" height="144.000000pt" viewBox="0 0 144.000000 144.000000"
 preserveAspectRatio="xMidYMid meet">
<metadata>
Created by potrace 1.14, written by Peter Selinger 2001-2017
</metadata>
<g transform="translate(0.000000,144.000000) scale(0.100000,-0.100000)"
fill="#000000" stroke="none">
<path d="M654 1278 l-41 -9 1 -77 c1 -93 20 -105 22 -13 1 40 6 66 14 71 17
10 144 10 160 0 9 -5 13 -31 12 -73 0 -48 3 -65 12 -61 8 3 12 29 12 79 l0 74
-30 7 c-46 10 -115 11 -162 2z"/>
<path d="M564 1205 c-69 -29 -154 -139 -168 -217 -2 -15 -7 -31 -10 -36 -2 -4
-1 -14 4 -22 7 -11 11 -8 19 13 6 16 11 34 11 42 0 7 12 36 26 64 25 47 76
100 135 142 32 22 22 31 -17 14z"/>
<path d="M860 1204 c0 -7 6 -14 14 -14 8 0 37 -20 64 -45 52 -47 101 -130 106
-181 2 -16 10 -30 19 -32 13 -3 14 3 7 35 -12 50 -36 108 -58 135 -59 76 -152
138 -152 102z"/>
<path d="M349 900 c-1 -5 -2 -16 -3 -22 -1 -7 1 -18 5 -23 5 -7 136 -10 376
-9 202 1 373 2 380 3 6 0 10 9 8 19 -2 9 -4 23 -4 30 -1 16 -760 18 -762 2z
m441 -22 c0 -5 -92 -8 -205 -8 -113 0 -205 3 -205 8 0 4 92 7 205 7 113 0 205
-3 205 -7z m287 -1 c3 -4 -58 -7 -136 -7 -78 0 -140 3 -138 8 6 9 265 8 274
-1z"/>
<path d="M390 780 c-25 -46 -16 -106 20 -142 33 -31 101 -59 154 -62 44 -3 65
2 115 27 56 27 63 29 79 14 57 -50 172 -57 239 -13 69 45 79 59 89 114 4 22
-16 70 -32 76 -13 5 -18 -7 -17 -41 1 -7 -3 -13 -8 -13 -5 0 -9 -6 -9 -14 0
-13 -19 -26 -48 -32 -7 -1 -29 4 -48 12 -18 8 -35 14 -36 13 -2 0 -16 5 -33
12 -41 16 -104 16 -114 0 -7 -11 -13 -10 -34 4 -24 15 -30 15 -114 -11 -48
-16 -94 -28 -100 -27 -7 0 -20 1 -28 2 -16 1 -47 60 -39 72 2 4 -3 12 -10 19
-12 9 -17 7 -26 -10z m54 -102 c20 -14 65 -8 142 17 94 31 112 31 123 3 23
-64 -93 -116 -195 -89 -53 14 -104 59 -110 96 l-5 30 17 -25 c10 -14 23 -28
28 -32z m616 35 c0 -22 -34 -62 -74 -87 -46 -29 -134 -33 -184 -7 -51 26 -67
52 -50 81 16 25 39 25 113 -1 114 -41 121 -41 158 -4 39 40 37 39 37 18z"/>
<path d="M470 569 c0 -21 118 -128 168 -152 97 -47 216 -13 301 86 42 49 51
61 51 69 0 17 -16 6 -65 -44 -72 -76 -134 -111 -196 -110 -63 0 -157 60 -221
140 -19 23 -38 29 -38 11z"/>
<path d="M487 483 c-20 -19 21 -105 83 -170 l20 -23 60 32 c33 17 60 34 60 38
0 17 -15 16 -56 -6 -25 -13 -50 -24 -57 -24 -15 0 -87 102 -92 131 -5 26 -9
31 -18 22z"/>
<path d="M960 485 c-5 -35 -12 -49 -46 -99 -22 -30 -46 -55 -54 -56 -8 0 -28
9 -45 20 -16 11 -41 20 -54 20 l-25 0 22 -20 c12 -11 27 -20 34 -20 8 0 22 -6
33 -13 42 -29 53 -27 75 9 12 19 27 40 33 47 27 28 38 47 47 76 5 17 5 29 0
26 -4 -3 -11 1 -13 7 -3 7 -6 9 -7 3z"/>
<path d="M426 408 c-10 -6 -66 -30 -125 -54 -101 -42 -156 -82 -159 -117 -4
-59 -4 -156 1 -164 7 -12 1161 -13 1172 -1 10 9 10 124 0 165 -4 17 -17 41
-29 51 -16 16 -136 72 -273 129 -7 3 -13 -1 -13 -8 0 -8 17 -21 38 -31 114
-51 132 -58 138 -58 19 0 92 -44 103 -63 8 -11 15 -54 17 -94 l3 -73 -85 0
c-46 -1 -154 -1 -239 -1 -85 0 -166 0 -180 1 l-25 0 0 120 c0 100 -2 120 -15
120 -8 0 -15 -7 -15 -15 0 -8 -7 -15 -16 -15 -10 0 -14 6 -10 15 3 9 0 15 -9
15 -11 0 -14 -23 -14 -116 0 -65 -3 -119 -5 -121 -4 -4 -136 -5 -433 -4 l-91
1 2 73 c2 39 6 79 10 87 11 24 46 45 133 78 110 43 152 65 153 80 0 15 -9 15
-34 0z m318 -150 c-3 -48 -3 -48 -18 -42 -15 6 -16 55 -1 66 18 13 21 9 19
-24z m-1 -70 c6 -19 -4 -48 -17 -48 -6 0 -12 14 -12 30 -2 30 20 43 29 18z m1
-66 c7 -11 -11 -38 -20 -29 -14 13 -13 37 1 37 8 0 16 -4 19 -8z"/>
<path d="M424 345 c-10 -14 -24 -25 -31 -25 -7 0 -17 -9 -23 -20 -12 -23 -90
-100 -102 -100 -4 0 -18 10 -30 23 -13 13 -29 22 -37 19 -9 -3 -3 -15 19 -37
l32 -33 -27 -26 c-36 -36 -22 -53 17 -21 l31 26 27 -26 c18 -17 30 -23 34 -16
4 6 -5 22 -20 36 l-28 26 52 52 52 52 52 -52 c48 -48 50 -52 34 -68 -21 -22
-39 -55 -29 -55 5 0 20 11 35 25 15 14 29 25 32 25 3 0 17 -12 32 -27 19 -19
29 -23 32 -14 2 7 -7 25 -21 39 l-25 25 44 45 c24 25 44 50 44 54 0 17 -18 7
-58 -32 -22 -22 -45 -40 -50 -40 -5 0 -30 21 -56 46 l-47 47 30 31 c17 18 31
35 31 39 0 16 -29 5 -46 -18z"/>
<path d="M1000 360 c0 -5 11 -20 25 -34 14 -14 25 -29 25 -33 0 -12 -83 -93
-95 -93 -6 0 -29 18 -50 40 -21 22 -43 40 -47 40 -14 0 -9 -22 10 -39 9 -9 28
-29 41 -44 l24 -27 -22 -24 c-34 -36 -22 -55 13 -22 l29 26 34 -25 c37 -29 48
-12 13 20 -11 10 -20 22 -20 27 0 10 86 98 96 98 9 0 94 -84 94 -93 0 -4 -10
-21 -22 -37 -29 -40 -18 -47 21 -14 l32 26 23 -25 c16 -18 27 -22 34 -15 7 7
2 17 -16 33 l-27 23 29 30 c40 43 29 63 -13 24 l-34 -30 -48 46 c-27 26 -49
53 -49 60 0 7 -8 16 -17 19 -10 4 -28 17 -40 30 -23 24 -43 30 -43 13z"/>
</g>
</svg>
